<svg width="1080" height="1080" viewBox="0 0 1080 1080" fill="none" xmlns="http://www.w3.org/2000/svg">
<g clip-path="url(#clip0_2_54)">
<rect width="1080" height="1080" fill="white"/>
<path d="M407.682 592.455H417.409V624.909C417.409 627.909 416.735 630.515 415.386 632.727C414.053 634.939 412.197 636.644 409.818 637.841C407.439 639.038 404.674 639.636 401.523 639.636C398.72 639.636 396.174 639.144 393.886 638.159C391.614 637.159 389.811 635.644 388.477 633.614C387.144 631.568 386.485 629 386.5 625.909H396.295C396.326 627.136 396.576 628.189 397.045 629.068C397.53 629.932 398.189 630.598 399.023 631.068C399.871 631.523 400.871 631.75 402.023 631.75C403.235 631.75 404.258 631.492 405.091 630.977C405.939 630.447 406.583 629.674 407.023 628.659C407.462 627.644 407.682 626.394 407.682 624.909V592.455ZM455.129 607.5C454.811 606.394 454.364 605.417 453.788 604.568C453.212 603.705 452.508 602.977 451.675 602.386C450.856 601.78 449.917 601.318 448.856 601C447.811 600.682 446.652 600.523 445.379 600.523C443 600.523 440.909 601.114 439.106 602.295C437.318 603.477 435.925 605.197 434.925 607.455C433.925 609.697 433.425 612.439 433.425 615.682C433.425 618.924 433.917 621.682 434.902 623.955C435.887 626.227 437.281 627.962 439.084 629.159C440.887 630.341 443.015 630.932 445.47 630.932C447.697 630.932 449.599 630.538 451.175 629.75C452.765 628.947 453.978 627.818 454.811 626.364C455.659 624.909 456.084 623.189 456.084 621.205L458.084 621.5H446.084V614.091H465.561V619.955C465.561 624.045 464.697 627.561 462.97 630.5C461.243 633.424 458.864 635.682 455.834 637.273C452.803 638.848 449.334 639.636 445.425 639.636C441.061 639.636 437.228 638.674 433.925 636.75C430.622 634.811 428.046 632.061 426.197 628.5C424.364 624.924 423.447 620.682 423.447 615.773C423.447 612 423.993 608.636 425.084 605.682C426.19 602.712 427.735 600.197 429.72 598.136C431.705 596.076 434.015 594.508 436.652 593.432C439.288 592.356 442.144 591.818 445.22 591.818C447.856 591.818 450.311 592.205 452.584 592.977C454.856 593.735 456.872 594.811 458.629 596.205C460.402 597.598 461.849 599.258 462.97 601.182C464.091 603.091 464.811 605.197 465.129 607.5H455.129ZM478.258 639H467.713L483.781 592.455H496.463L512.508 639H501.963L490.304 603.091H489.94L478.258 639ZM477.599 620.705H502.508V628.386H477.599V620.705ZM516.83 592.455H528.967L541.785 623.727H542.33L555.149 592.455H567.285V639H557.74V608.705H557.353L545.308 638.773H538.808L526.762 608.591H526.376V639H516.83V592.455ZM574.113 639V592.455H605.477V600.568H583.954V611.659H603.863V619.773H583.954V630.886H605.568V639H574.113Z" fill="#7C3AED"/>
<path d="M542.047 642.769C522.376 638.66 522.259 652.781 503.026 652.781C486.385 652.781 485.761 638.82 464.004 642.769C428.377 649.21 422.9 727.594 441.8 731.702C452.293 733.981 457.58 721.813 471.453 713.079C473.513 714.601 475.905 715.611 478.433 716.024C480.96 716.437 483.55 716.242 485.987 715.454C488.424 714.666 490.638 713.309 492.445 711.495C494.253 709.681 495.602 707.462 496.381 705.023C498.589 704.831 500.803 704.736 503.019 704.738C505.352 704.738 507.531 704.838 509.621 705.019C510.402 707.459 511.753 709.678 513.563 711.491C515.373 713.304 517.589 714.66 520.028 715.446C522.466 716.231 525.057 716.424 527.585 716.009C530.113 715.593 532.506 714.581 534.564 713.055C548.455 721.79 553.742 733.971 564.238 731.688C583.135 727.593 577.518 650.174 542.047 642.769ZM469.084 682.845H460.914V674.538H452.603V666.368H460.914V658.058H469.084V666.364H477.391V674.534H469.084V682.841L469.084 682.845ZM481.029 710.849C478.907 710.849 476.832 710.22 475.068 709.041C473.303 707.862 471.928 706.186 471.116 704.225C470.304 702.265 470.092 700.107 470.506 698.026C470.92 695.945 471.942 694.033 473.442 692.532C474.943 691.031 476.855 690.01 478.936 689.596C481.018 689.182 483.175 689.394 485.136 690.206C487.096 691.018 488.772 692.394 489.951 694.158C491.13 695.923 491.759 697.997 491.759 700.119C491.76 702.965 490.631 705.695 488.619 707.707C486.607 709.72 483.879 710.852 481.033 710.853L481.029 710.849ZM524.967 710.849C522.845 710.848 520.772 710.216 519.008 709.036C517.245 707.856 515.871 706.179 515.061 704.218C514.25 702.257 514.039 700.1 514.455 698.019C514.87 695.938 515.893 694.027 517.394 692.528C518.896 691.028 520.808 690.007 522.889 689.594C524.971 689.182 527.128 689.395 529.088 690.208C531.048 691.021 532.723 692.397 533.901 694.162C535.079 695.926 535.708 698.001 535.707 700.123C535.707 701.533 535.429 702.929 534.889 704.231C534.349 705.534 533.558 706.717 532.561 707.713C531.563 708.71 530.379 709.5 529.076 710.039C527.773 710.577 526.377 710.854 524.967 710.853L524.967 710.849ZM532.369 675.863C531.298 675.863 530.251 675.545 529.361 674.951C528.471 674.356 527.777 673.51 527.367 672.521C526.957 671.532 526.85 670.443 527.058 669.393C527.267 668.343 527.783 667.378 528.54 666.621C529.297 665.864 530.262 665.348 531.312 665.14C532.362 664.931 533.451 665.038 534.44 665.448C535.429 665.858 536.275 666.552 536.869 667.442C537.464 668.333 537.781 669.379 537.781 670.45C537.781 671.886 537.211 673.263 536.196 674.278C535.181 675.293 533.804 675.863 532.368 675.863L532.369 675.863ZM544.093 687.588C543.022 687.588 541.976 687.27 541.086 686.675C540.195 686.081 539.501 685.235 539.092 684.246C538.682 683.257 538.575 682.168 538.783 681.118C538.992 680.068 539.508 679.104 540.265 678.346C541.022 677.589 541.986 677.074 543.036 676.865C544.087 676.656 545.175 676.763 546.164 677.173C547.153 677.582 547.999 678.276 548.594 679.166C549.189 680.057 549.506 681.103 549.506 682.174C549.507 682.886 549.367 683.591 549.094 684.25C548.821 684.908 548.421 685.505 547.917 686.009C547.413 686.512 546.815 686.911 546.156 687.182C545.498 687.454 544.792 687.592 544.08 687.591L544.093 687.588ZM544.093 664.135C543.022 664.135 541.976 663.818 541.086 663.223C540.195 662.628 539.501 661.783 539.092 660.793C538.682 659.804 538.575 658.716 538.783 657.666C538.992 656.616 539.508 655.651 540.265 654.894C541.022 654.137 541.987 653.621 543.037 653.412C544.087 653.203 545.175 653.31 546.164 653.72C547.154 654.13 547.999 654.824 548.594 655.714C549.189 656.604 549.506 657.651 549.506 658.722C549.507 659.434 549.367 660.139 549.094 660.797C548.821 661.455 548.421 662.053 547.917 662.556C547.413 663.059 546.815 663.458 546.156 663.73C545.498 664.001 544.792 664.14 544.08 664.138L544.093 664.135ZM555.818 675.859C554.747 675.859 553.7 675.542 552.81 674.947C551.92 674.352 551.226 673.507 550.816 672.518C550.406 671.528 550.299 670.44 550.508 669.39C550.717 668.34 551.233 667.375 551.99 666.618C552.747 665.861 553.711 665.345 554.761 665.137C555.812 664.928 556.9 665.035 557.889 665.445C558.878 665.854 559.724 666.548 560.319 667.438C560.913 668.329 561.231 669.375 561.231 670.446C561.231 671.158 561.091 671.864 560.819 672.522C560.546 673.18 560.146 673.778 559.642 674.281C559.138 674.784 558.539 675.183 557.88 675.454C557.222 675.726 556.516 675.865 555.804 675.863L555.818 675.859Z" fill="black"/>
</g>
<defs>
<clipPath id="clip0_2_54">
<rect width="1080" height="1080" fill="white"/>
</clipPath>
</defs>
</svg>
